<svg xmlns="http://www.w3.org/2000/svg" xmlns:xlink="http://www.w3.org/1999/xlink" width="500" zoomAndPan="magnify" viewBox="0 0 375 374.999991" height="500" preserveAspectRatio="xMidYMid meet" version="1.0"><defs><g/><clipPath id="223cd6a306"><path d="M 73.613281 73.613281 L 301.386719 73.613281 L 301.386719 301.386719 L 73.613281 301.386719 Z M 73.613281 73.613281 " clip-rule="nonzero"/></clipPath><clipPath id="d49ce37731"><path d="M 187.5 301.386719 C 157.09375 301.386719 128.460938 289.554688 106.976562 268.023438 C 85.445312 246.539062 73.613281 217.90625 73.613281 187.5 C 73.613281 157.09375 85.445312 128.460938 106.976562 106.976562 C 128.460938 85.445312 157.09375 73.613281 187.5 73.613281 C 217.90625 73.613281 246.539062 85.445312 268.023438 106.976562 C 289.554688 128.507812 301.386719 157.09375 301.386719 187.5 C 301.386719 217.90625 289.554688 246.539062 268.023438 268.023438 C 246.539062 289.554688 217.90625 301.386719 187.5 301.386719 Z M 187.5 80.441406 C 158.914062 80.441406 132.011719 91.589844 111.800781 111.800781 C 91.589844 132.011719 80.441406 158.914062 80.441406 187.5 C 80.441406 216.085938 91.589844 242.988281 111.800781 263.199219 C 132.011719 283.410156 158.914062 294.558594 187.5 294.558594 C 216.085938 294.558594 242.988281 283.410156 263.199219 263.199219 C 283.410156 242.988281 294.558594 216.085938 294.558594 187.5 C 294.558594 158.914062 283.410156 132.011719 263.199219 111.800781 C 242.988281 91.589844 216.085938 80.441406 187.5 80.441406 Z M 187.5 80.441406 " clip-rule="nonzero"/></clipPath><clipPath id="ea75846332"><path d="M 117.9375 117.9375 L 257.0625 117.9375 L 257.0625 257.0625 L 117.9375 257.0625 Z M 117.9375 117.9375 " clip-rule="nonzero"/></clipPath><clipPath id="25bfb5f02b"><path d="M 187.5 117.9375 C 149.082031 117.9375 117.9375 149.082031 117.9375 187.5 C 117.9375 225.917969 149.082031 257.0625 187.5 257.0625 C 225.917969 257.0625 257.0625 225.917969 257.0625 187.5 C 257.0625 149.082031 225.917969 117.9375 187.5 117.9375 Z M 187.5 117.9375 " clip-rule="nonzero"/></clipPath><clipPath id="783fad7824"><path d="M 163 133.625 L 241.625 133.625 L 241.625 216 L 163 216 Z M 163 133.625 " clip-rule="nonzero"/></clipPath><clipPath id="f37d6fbd12"><path d="M 161 206 L 215 206 L 215 241.625 L 161 241.625 Z M 161 206 " clip-rule="nonzero"/></clipPath><clipPath id="98b394f6df"><path d="M 133.625 163 L 149 163 L 149 217 L 133.625 217 Z M 133.625 163 " clip-rule="nonzero"/></clipPath><clipPath id="135dc00fa3"><path d="M 89.835938 177.648438 L 109.535156 177.648438 L 109.535156 197.351562 L 89.835938 197.351562 Z M 89.835938 177.648438 " clip-rule="nonzero"/></clipPath><clipPath id="cfdbe745b3"><path d="M 99.6875 177.648438 C 94.246094 177.648438 89.835938 182.058594 89.835938 187.5 C 89.835938 192.941406 94.246094 197.351562 99.6875 197.351562 C 105.125 197.351562 109.535156 192.941406 109.535156 187.5 C 109.535156 182.058594 105.125 177.648438 99.6875 177.648438 Z M 99.6875 177.648438 " clip-rule="nonzero"/></clipPath><clipPath id="a8074cfca3"><path d="M 265.464844 180.410156 L 285.164062 180.410156 L 285.164062 200.109375 L 265.464844 200.109375 Z M 265.464844 180.410156 " clip-rule="nonzero"/></clipPath><clipPath id="8d7900a8a2"><path d="M 275.3125 180.410156 C 269.875 180.410156 265.464844 184.820312 265.464844 190.257812 C 265.464844 195.699219 269.875 200.109375 275.3125 200.109375 C 280.753906 200.109375 285.164062 195.699219 285.164062 190.257812 C 285.164062 184.820312 280.753906 180.410156 275.3125 180.410156 Z M 275.3125 180.410156 " clip-rule="nonzero"/></clipPath></defs><rect x="-37.5" width="450" fill="#ffffff" y="-37.499999" height="449.999989" fill-opacity="1"/><rect x="-37.5" width="450" fill="#b27729" y="-37.499999" height="449.999989" fill-opacity="1"/><g clip-path="url(#223cd6a306)"><g clip-path="url(#d49ce37731)"><path fill="#ffffff" d="M 73.613281 73.613281 L 301.386719 73.613281 L 301.386719 301.386719 L 73.613281 301.386719 Z M 73.613281 73.613281 " fill-opacity="1" fill-rule="nonzero"/></g></g><g clip-path="url(#ea75846332)"><g clip-path="url(#25bfb5f02b)"><path fill="#fdfdfd" d="M 117.9375 117.9375 L 257.0625 117.9375 L 257.0625 257.0625 L 117.9375 257.0625 Z M 117.9375 117.9375 " fill-opacity="1" fill-rule="nonzero"/></g></g><g clip-path="url(#783fad7824)"><path fill="#642215" d="M 187.625 133.625 C 217.457031 133.625 241.625 157.796875 241.625 187.625 C 241.625 197.863281 238.777344 207.457031 233.808594 215.621094 L 228.582031 203.050781 C 228.949219 203.007812 229.316406 202.960938 229.683594 202.917969 L 234.996094 202.25 L 236.722656 197.175781 C 238.429688 192.164062 238.796875 187 236.207031 182.226562 C 228.082031 167.28125 193.242188 175.097656 173.628906 178.988281 C 171.792969 167.472656 169.179688 150.367188 163.390625 139.328125 C 170.691406 135.699219 178.921875 133.625 187.625 133.625 Z M 187.625 133.625 " fill-opacity="1" fill-rule="evenodd"/></g><g clip-path="url(#f37d6fbd12)"><path fill="#e3b066" d="M 214.367188 234.542969 L 202.640625 206.289062 C 192.464844 207.5625 182.292969 208.816406 172.117188 210.089844 L 161.75 235.039062 C 169.441406 239.230469 178.253906 241.625 187.625 241.625 C 197.367188 241.625 206.484375 239.054688 214.367188 234.542969 Z M 214.367188 234.542969 " fill-opacity="1" fill-rule="evenodd"/></g><g clip-path="url(#98b394f6df)"><path fill="#b27729" d="M 142.074219 216.65625 C 136.738281 208.277344 133.625 198.320312 133.625 187.625 C 133.625 178.945312 135.679688 170.757812 139.308594 163.5 L 148.121094 203.179688 L 147.539062 203.523438 Z M 142.074219 216.65625 " fill-opacity="1" fill-rule="evenodd"/></g><path fill="#b27729" d="M 228.882812 203.007812 L 228.773438 203.480469 L 228.582031 203.050781 Z M 228.882812 203.007812 " fill-opacity="1" fill-rule="evenodd"/><path fill="#b27729" d="M 217.953125 199.789062 L 209.636719 200.824219 L 224.109375 235.644531 C 224.953125 237.695312 227.328125 238.667969 229.378906 237.824219 C 231.429688 236.984375 232.402344 234.605469 231.5625 232.554688 Z M 228.6875 186.332031 C 229.984375 188.726562 229.617188 191.492188 228.625 194.410156 C 205.210938 197.324219 181.792969 200.242188 158.378906 203.15625 C 158.402344 202.875 158.421875 202.59375 158.445312 202.316406 C 157.925781 202.617188 157.429688 202.917969 156.910156 203.222656 L 143.367188 142.289062 C 145.355469 138.789062 147.34375 137.234375 149.308594 137.125 C 159.71875 136.585938 164.839844 180.457031 166.675781 188.945312 C 177.667969 187.410156 223.050781 175.984375 228.6875 186.332031 Z M 154.363281 209.441406 L 144.773438 232.535156 C 143.929688 234.585938 144.902344 236.960938 146.953125 237.804688 C 149.007812 238.667969 151.382812 237.675781 152.222656 235.621094 L 164.34375 206.460938 L 158.878906 207.152344 L 158.011719 207.261719 Z M 154.363281 209.441406 " fill-opacity="1" fill-rule="evenodd"/><g clip-path="url(#135dc00fa3)"><g clip-path="url(#cfdbe745b3)"><path fill="#b27729" d="M 89.835938 177.648438 L 109.535156 177.648438 L 109.535156 197.351562 L 89.835938 197.351562 Z M 89.835938 177.648438 " fill-opacity="1" fill-rule="nonzero"/></g></g><g clip-path="url(#a8074cfca3)"><g clip-path="url(#8d7900a8a2)"><path fill="#b27729" d="M 265.464844 180.410156 L 285.164062 180.410156 L 285.164062 200.109375 L 265.464844 200.109375 Z M 265.464844 180.410156 " fill-opacity="1" fill-rule="nonzero"/></g></g><g fill="#ffffff" fill-opacity="1"><g transform="translate(97.846527, 213.199918)"><g><path d="M 0.234375 0.8125 L 11.703125 -2.390625 L 12.015625 -1.234375 L 0.546875 1.96875 Z M 0.234375 0.8125 "/></g></g></g><g fill="#ffffff" fill-opacity="1"><g transform="translate(99.617251, 220.092894)"><g><path d="M 0.34375 0.765625 L 11.234375 -4.046875 L 11.796875 -2.765625 L 5.296875 6.09375 L 16.25 7.296875 L 16.796875 8.546875 L 5.90625 13.359375 L 5.4375 12.265625 L 13.84375 8.5625 C 13.988281 8.5 14.046875 8.429688 14.015625 8.359375 C 13.984375 8.285156 13.875 8.234375 13.6875 8.203125 L 3.140625 7.078125 L 9.390625 -1.484375 C 9.492188 -1.648438 9.53125 -1.769531 9.5 -1.84375 C 9.46875 -1.90625 9.378906 -1.90625 9.234375 -1.84375 L 0.828125 1.875 Z M 0.34375 0.765625 "/></g></g></g><g fill="#ffffff" fill-opacity="1"><g transform="translate(108.212403, 237.917143)"><g><path d="M 0.484375 0.703125 L 10.296875 -6.03125 L 12.828125 -2.34375 C 13.285156 -1.675781 13.546875 -1 13.609375 -0.3125 C 13.679688 0.375 13.566406 1.019531 13.265625 1.625 C 12.960938 2.238281 12.476562 2.78125 11.8125 3.25 C 11.15625 3.695312 10.488281 3.953125 9.8125 4.015625 C 9.132812 4.078125 8.484375 3.953125 7.859375 3.640625 C 7.234375 3.328125 6.691406 2.835938 6.234375 2.171875 L 4.765625 0.015625 C 4.660156 -0.117188 4.535156 -0.21875 4.390625 -0.28125 C 4.242188 -0.34375 4.101562 -0.328125 3.96875 -0.234375 L 1.15625 1.6875 Z M 11.84375 -1.671875 L 9.984375 -4.375 L 5.21875 -1.109375 C 5.21875 -1.109375 5.265625 -1.085938 5.359375 -1.046875 C 5.460938 -1.015625 5.5625 -0.929688 5.65625 -0.796875 L 7.234375 1.5 C 7.554688 1.96875 7.929688 2.316406 8.359375 2.546875 C 8.796875 2.773438 9.257812 2.875 9.75 2.84375 C 10.25 2.8125 10.726562 2.640625 11.1875 2.328125 C 11.882812 1.847656 12.296875 1.25 12.421875 0.53125 C 12.546875 -0.1875 12.351562 -0.921875 11.84375 -1.671875 Z M 11.84375 -1.671875 "/></g></g></g><g fill="#ffffff" fill-opacity="1"><g transform="translate(116.637189, 249.736297)"><g><path d="M 4.515625 4.625 C 3.679688 3.769531 3.132812 2.847656 2.875 1.859375 C 2.613281 0.878906 2.625 -0.09375 2.90625 -1.0625 C 3.195312 -2.039062 3.769531 -2.945312 4.625 -3.78125 C 5.46875 -4.613281 6.382812 -5.164062 7.375 -5.4375 C 8.375 -5.707031 9.359375 -5.695312 10.328125 -5.40625 C 11.304688 -5.113281 12.210938 -4.539062 13.046875 -3.6875 C 13.878906 -2.832031 14.429688 -1.910156 14.703125 -0.921875 C 14.972656 0.0546875 14.957031 1.035156 14.65625 2.015625 C 14.351562 2.992188 13.78125 3.898438 12.9375 4.734375 C 12.082031 5.566406 11.164062 6.113281 10.1875 6.375 C 9.207031 6.644531 8.222656 6.632812 7.234375 6.34375 C 6.253906 6.050781 5.347656 5.476562 4.515625 4.625 Z M 5.390625 -3 C 4.703125 -2.332031 4.234375 -1.59375 3.984375 -0.78125 C 3.742188 0.0195312 3.734375 0.816406 3.953125 1.609375 C 4.179688 2.410156 4.632812 3.15625 5.3125 3.84375 C 5.988281 4.539062 6.722656 5.007812 7.515625 5.25 C 8.316406 5.5 9.117188 5.507812 9.921875 5.28125 C 10.722656 5.050781 11.46875 4.601562 12.15625 3.9375 C 12.851562 3.25 13.320312 2.507812 13.5625 1.71875 C 13.8125 0.925781 13.820312 0.128906 13.59375 -0.671875 C 13.375 -1.472656 12.925781 -2.222656 12.25 -2.921875 C 11.570312 -3.609375 10.832031 -4.070312 10.03125 -4.3125 C 9.238281 -4.550781 8.441406 -4.5625 7.640625 -4.34375 C 6.835938 -4.132812 6.085938 -3.6875 5.390625 -3 Z M 5.390625 -3 "/></g></g></g><g fill="#ffffff" fill-opacity="1"><g transform="translate(129.001376, 261.724257)"><g><path d="M 1.65625 1.203125 L 0.6875 0.5 L 7.671875 -9.140625 L 11.296875 -6.515625 C 12.273438 -5.804688 12.875 -4.972656 13.09375 -4.015625 C 13.3125 -3.066406 13.070312 -2.109375 12.375 -1.140625 C 11.800781 -0.347656 11.144531 0.132812 10.40625 0.3125 C 9.675781 0.488281 8.921875 0.40625 8.140625 0.0625 L 7.5625 5.484375 L 6.453125 4.671875 L 6.921875 0.21875 C 6.941406 -0.113281 6.914062 -0.363281 6.84375 -0.53125 C 6.769531 -0.707031 6.628906 -0.867188 6.421875 -1.015625 L 4.90625 -2.125 C 4.769531 -2.21875 4.617188 -2.269531 4.453125 -2.28125 C 4.285156 -2.300781 4.148438 -2.238281 4.046875 -2.09375 Z M 7.953125 -7.46875 L 4.953125 -3.34375 C 4.953125 -3.34375 5 -3.34375 5.09375 -3.34375 C 5.195312 -3.34375 5.316406 -3.289062 5.453125 -3.1875 L 7.703125 -1.5625 C 8.378906 -1.070312 9.050781 -0.8125 9.71875 -0.78125 C 10.394531 -0.757812 10.984375 -1.09375 11.484375 -1.78125 C 11.972656 -2.445312 12.132812 -3.109375 11.96875 -3.765625 C 11.800781 -4.421875 11.347656 -5.015625 10.609375 -5.546875 Z M 7.953125 -7.46875 "/></g></g></g><g fill="#ffffff" fill-opacity="1"><g transform="translate(140.889003, 269.930259)"><g><path d="M 5.625 -9.15625 L 6.15625 -10.21875 L 13.75 -6.359375 L 13.21875 -5.296875 L 9.578125 -7.15625 C 9.765625 -7.050781 9.835938 -6.925781 9.796875 -6.78125 C 9.765625 -6.644531 9.710938 -6.503906 9.640625 -6.359375 L 5.078125 2.59375 L 4.015625 2.046875 L 8.578125 -6.90625 C 8.691406 -7.132812 8.726562 -7.3125 8.6875 -7.4375 C 8.644531 -7.570312 8.535156 -7.679688 8.359375 -7.765625 Z M 5.625 -9.15625 "/></g></g></g><g fill="#ffffff" fill-opacity="1"><g transform="translate(153.905114, 276.194031)"><g><path d="M 4.5 -11.046875 L 12.59375 -8.40625 L 12.21875 -7.28125 L 5.75 -9.390625 C 5.4375 -9.492188 5.226562 -9.382812 5.125 -9.0625 L 4.015625 -5.671875 C 4.015625 -5.671875 4.0625 -5.679688 4.15625 -5.703125 C 4.25 -5.734375 4.375 -5.722656 4.53125 -5.671875 L 10.203125 -3.828125 L 9.828125 -2.6875 L 4.3125 -4.484375 C 4.15625 -4.535156 4 -4.546875 3.84375 -4.515625 C 3.695312 -4.492188 3.597656 -4.394531 3.546875 -4.21875 L 2.328125 -0.484375 L 9.265625 1.78125 L 8.890625 2.90625 L 0.796875 0.265625 Z M 4.5 -11.046875 "/></g></g></g><g fill="#ffffff" fill-opacity="1"><g transform="translate(167.734937, 280.364162)"><g><path d="M 0.828125 0.140625 L 2.71875 -11.609375 L 5.25 -11.203125 C 6.425781 -11.015625 7.414062 -10.601562 8.21875 -9.96875 C 9.03125 -9.332031 9.609375 -8.535156 9.953125 -7.578125 C 10.296875 -6.628906 10.375 -5.566406 10.1875 -4.390625 C 10 -3.222656 9.585938 -2.238281 8.953125 -1.4375 C 8.328125 -0.632812 7.53125 -0.0546875 6.5625 0.296875 C 5.601562 0.648438 4.535156 0.734375 3.359375 0.546875 Z M 3.640625 -9.75 L 2.125 -0.34375 C 2.132812 -0.425781 2.1875 -0.507812 2.28125 -0.59375 C 2.382812 -0.6875 2.519531 -0.71875 2.6875 -0.6875 L 3.53125 -0.546875 C 4.488281 -0.390625 5.359375 -0.453125 6.140625 -0.734375 C 6.929688 -1.015625 7.582031 -1.484375 8.09375 -2.140625 C 8.601562 -2.804688 8.9375 -3.613281 9.09375 -4.5625 C 9.25 -5.519531 9.1875 -6.382812 8.90625 -7.15625 C 8.625 -7.9375 8.15625 -8.582031 7.5 -9.09375 C 6.84375 -9.601562 6.035156 -9.9375 5.078125 -10.09375 L 4.234375 -10.234375 C 4.066406 -10.265625 3.929688 -10.234375 3.828125 -10.140625 C 3.734375 -10.046875 3.671875 -9.914062 3.640625 -9.75 Z M 3.640625 -9.75 "/></g></g></g><g fill="#ffffff" fill-opacity="1"><g transform="translate(181.93726, 282.227911)"><g/></g></g><g fill="#ffffff" fill-opacity="1"><g transform="translate(191.170824, 282.433092)"><g><path d="M -0.265625 -11.9375 L 8.203125 -12.734375 L 8.3125 -11.546875 L 1.53125 -10.90625 C 1.195312 -10.875 1.046875 -10.6875 1.078125 -10.34375 L 1.40625 -6.796875 C 1.40625 -6.796875 1.441406 -6.828125 1.515625 -6.890625 C 1.597656 -6.960938 1.722656 -7.003906 1.890625 -7.015625 L 7.84375 -7.578125 L 7.953125 -6.375 L 2.171875 -5.828125 C 2.003906 -5.816406 1.851562 -5.765625 1.71875 -5.671875 C 1.59375 -5.585938 1.535156 -5.457031 1.546875 -5.28125 L 2.03125 -0.1875 L 0.84375 -0.078125 Z M -0.265625 -11.9375 "/></g></g></g><g fill="#ffffff" fill-opacity="1"><g transform="translate(205.51734, 280.750337)"><g><path d="M -0.234375 -4.328125 L -2.125 -11.734375 L -0.953125 -12.03125 L 0.9375 -4.625 C 1.164062 -3.726562 1.617188 -3.078125 2.296875 -2.671875 C 2.972656 -2.273438 3.757812 -2.191406 4.65625 -2.421875 C 5.539062 -2.640625 6.1875 -3.085938 6.59375 -3.765625 C 7.007812 -4.453125 7.101562 -5.242188 6.875 -6.140625 L 4.984375 -13.546875 L 6.125 -13.84375 L 8.015625 -6.4375 C 8.222656 -5.613281 8.234375 -4.847656 8.046875 -4.140625 C 7.859375 -3.429688 7.5 -2.828125 6.96875 -2.328125 C 6.4375 -1.828125 5.765625 -1.472656 4.953125 -1.265625 C 4.117188 -1.054688 3.347656 -1.039062 2.640625 -1.21875 C 1.941406 -1.40625 1.335938 -1.765625 0.828125 -2.296875 C 0.328125 -2.828125 -0.0234375 -3.503906 -0.234375 -4.328125 Z M -0.234375 -4.328125 "/></g></g></g><g fill="#ffffff" fill-opacity="1"><g transform="translate(219.429524, 276.863777)"><g><path d="M 1.875 -0.8125 L 0.78125 -0.328125 L -3.90625 -11.265625 L 0.203125 -13.03125 C 1.316406 -13.507812 2.335938 -13.597656 3.265625 -13.296875 C 4.191406 -12.992188 4.894531 -12.296875 5.375 -11.203125 C 5.75 -10.304688 5.820312 -9.5 5.59375 -8.78125 C 5.375 -8.0625 4.921875 -7.453125 4.234375 -6.953125 L 8.59375 -3.6875 L 7.328125 -3.140625 L 3.734375 -5.828125 C 3.460938 -6.023438 3.234375 -6.132812 3.046875 -6.15625 C 2.859375 -6.175781 2.644531 -6.132812 2.40625 -6.03125 L 0.6875 -5.296875 C 0.53125 -5.222656 0.398438 -5.117188 0.296875 -4.984375 C 0.203125 -4.859375 0.191406 -4.71875 0.265625 -4.5625 Z M -2.34375 -10.65625 L -0.34375 -5.96875 C -0.34375 -5.96875 -0.3125 -6.007812 -0.25 -6.09375 C -0.195312 -6.175781 -0.09375 -6.25 0.0625 -6.3125 L 2.609375 -7.40625 C 3.378906 -7.738281 3.945312 -8.1875 4.3125 -8.75 C 4.675781 -9.3125 4.691406 -9.984375 4.359375 -10.765625 C 4.023438 -11.523438 3.535156 -12 2.890625 -12.1875 C 2.242188 -12.382812 1.503906 -12.300781 0.671875 -11.9375 Z M -2.34375 -10.65625 "/></g></g></g><g fill="#ffffff" fill-opacity="1"><g transform="translate(232.570946, 270.867335)"><g><path d="M -5.609375 -10.53125 L -4.265625 -11.375 L 4.34375 -7.765625 C 4.46875 -7.710938 4.5625 -7.703125 4.625 -7.734375 C 4.707031 -7.785156 4.71875 -7.859375 4.65625 -7.953125 L 0.59375 -14.421875 L 1.59375 -15.0625 L 7.921875 -4.984375 L -3.796875 -9.890625 L 1.734375 -1.09375 L 0.71875 -0.453125 Z M -5.609375 -10.53125 "/></g></g></g><g fill="#ffffff" fill-opacity="1"><g transform="translate(244.418309, 262.905188)"><g><path d="M 0.65625 -0.53125 L -6.78125 -9.828125 L -5.84375 -10.578125 L 1.59375 -1.28125 Z M 0.65625 -0.53125 "/></g></g></g><g fill="#ffffff" fill-opacity="1"><g transform="translate(249.847787, 258.521149)"><g><path d="M -7.015625 -8.140625 L -7.859375 -8.96875 L -1.859375 -15.015625 L -1.015625 -14.1875 L -3.890625 -11.296875 C -3.742188 -11.441406 -3.609375 -11.476562 -3.484375 -11.40625 C -3.359375 -11.332031 -3.238281 -11.238281 -3.125 -11.125 L 4.015625 -4.046875 L 3.171875 -3.203125 L -3.96875 -10.28125 C -4.144531 -10.457031 -4.300781 -10.539062 -4.4375 -10.53125 C -4.582031 -10.53125 -4.722656 -10.460938 -4.859375 -10.328125 Z M -7.015625 -8.140625 "/></g></g></g><g fill="#ffffff" fill-opacity="1"><g transform="translate(259.777689, 248.03064)"><g><path d="M -2.953125 -3.171875 L -9.15625 -7.65625 L -8.453125 -8.625 L -2.25 -4.140625 C -1.5 -3.609375 -0.738281 -3.398438 0.03125 -3.515625 C 0.8125 -3.640625 1.472656 -4.078125 2.015625 -4.828125 C 2.554688 -5.578125 2.765625 -6.34375 2.640625 -7.125 C 2.515625 -7.914062 2.078125 -8.578125 1.328125 -9.109375 L -4.875 -13.59375 L -4.171875 -14.5625 L 2.03125 -10.078125 C 2.71875 -9.585938 3.210938 -9.007812 3.515625 -8.34375 C 3.828125 -7.675781 3.941406 -6.976562 3.859375 -6.25 C 3.773438 -5.53125 3.484375 -4.828125 2.984375 -4.140625 C 2.484375 -3.453125 1.90625 -2.953125 1.25 -2.640625 C 0.59375 -2.335938 -0.0976562 -2.226562 -0.828125 -2.3125 C -1.554688 -2.394531 -2.265625 -2.679688 -2.953125 -3.171875 Z M -2.953125 -3.171875 "/></g></g></g><g fill="#ffffff" fill-opacity="1"><g transform="translate(267.961188, 236.127507)"><g><path d="M 0.921875 -1.828125 L 0.375 -0.75 L -10.25 -6.140625 L -8.21875 -10.140625 C -7.664062 -11.222656 -6.929688 -11.945312 -6.015625 -12.3125 C -5.109375 -12.675781 -4.117188 -12.585938 -3.046875 -12.046875 C -2.179688 -11.609375 -1.601562 -11.035156 -1.3125 -10.328125 C -1.03125 -9.628906 -1 -8.867188 -1.21875 -8.046875 L 4.234375 -8.328125 L 3.609375 -7.109375 L -0.859375 -6.859375 C -1.203125 -6.835938 -1.453125 -6.773438 -1.609375 -6.671875 C -1.765625 -6.566406 -1.898438 -6.398438 -2.015625 -6.171875 L -2.859375 -4.5 C -2.941406 -4.351562 -2.976562 -4.195312 -2.96875 -4.03125 C -2.957031 -3.875 -2.875 -3.753906 -2.71875 -3.671875 Z M -8.640625 -6.671875 L -4.078125 -4.359375 C -4.078125 -4.359375 -4.082031 -4.40625 -4.09375 -4.5 C -4.101562 -4.601562 -4.070312 -4.726562 -4 -4.875 L -2.75 -7.359375 C -2.375 -8.097656 -2.222656 -8.800781 -2.296875 -9.46875 C -2.378906 -10.144531 -2.796875 -10.675781 -3.546875 -11.0625 C -4.296875 -11.4375 -4.976562 -11.488281 -5.59375 -11.21875 C -6.21875 -10.945312 -6.738281 -10.40625 -7.15625 -9.59375 Z M -8.640625 -6.671875 "/></g></g></g><g fill="#ffffff" fill-opacity="1"><g transform="translate(274.200355, 223.099564)"><g><path d="M -11.0625 -4.46875 L -8.4375 -12.578125 L -7.296875 -12.21875 L -9.40625 -5.734375 C -9.507812 -5.421875 -9.398438 -5.210938 -9.078125 -5.109375 L -5.6875 -4 C -5.6875 -4 -5.703125 -4.046875 -5.734375 -4.140625 C -5.765625 -4.242188 -5.753906 -4.375 -5.703125 -4.53125 L -3.859375 -10.203125 L -2.703125 -9.828125 L -4.484375 -4.3125 C -4.535156 -4.15625 -4.550781 -4 -4.53125 -3.84375 C -4.507812 -3.695312 -4.410156 -3.59375 -4.234375 -3.53125 L -0.5 -2.3125 L 1.765625 -9.265625 L 2.890625 -8.90625 L 0.265625 -0.796875 Z M -11.0625 -4.46875 "/></g></g></g><g fill="#ffffff" fill-opacity="1"><g transform="translate(127.096354, 132.957575)"><g><path d="M -4.421875 -20.71875 C -3.398438 -21.613281 -2.210938 -22.285156 -0.859375 -22.734375 C 0.492188 -23.191406 1.832031 -23.378906 3.15625 -23.296875 L 3.234375 -19.125 C 2.316406 -19.269531 1.40625 -19.226562 0.5 -19 C -0.40625 -18.78125 -1.164062 -18.398438 -1.78125 -17.859375 C -2.863281 -16.898438 -3.429688 -15.710938 -3.484375 -14.296875 C -3.535156 -12.890625 -3.066406 -11.625 -2.078125 -10.5 C -1.054688 -9.351562 0.15625 -8.71875 1.5625 -8.59375 C 2.96875 -8.46875 4.210938 -8.882812 5.296875 -9.84375 C 5.867188 -10.34375 6.335938 -11.007812 6.703125 -11.84375 C 7.078125 -12.6875 7.28125 -13.570312 7.3125 -14.5 L 11.265625 -14.140625 C 11.191406 -12.722656 10.851562 -11.335938 10.25 -9.984375 C 9.644531 -8.628906 8.835938 -7.507812 7.828125 -6.625 C 5.753906 -4.800781 3.4375 -3.953125 0.875 -4.078125 C -1.675781 -4.210938 -3.84375 -5.289062 -5.625 -7.3125 C -7.363281 -9.28125 -8.117188 -11.539062 -7.890625 -14.09375 C -7.671875 -16.65625 -6.515625 -18.863281 -4.421875 -20.71875 Z M -4.421875 -20.71875 "/></g></g></g><g fill="#ffffff" fill-opacity="1"><g transform="translate(143.277765, 119.758976)"><g/></g></g><g fill="#ffffff" fill-opacity="1"><g transform="translate(150.642312, 114.841121)"><g><path d="M 17.640625 -6.25 L 13.25 -4.6875 L 10.875 -11.390625 L 3.734375 -8.859375 L 6.109375 -2.15625 L 1.71875 -0.609375 L -4.390625 -17.859375 L 0 -19.40625 L 2.515625 -12.3125 L 9.65625 -14.84375 L 7.140625 -21.9375 L 11.53125 -23.5 Z M 17.640625 -6.25 "/></g></g></g><g fill="#ffffff" fill-opacity="1"><g transform="translate(172.82227, 108.034619)"><g/></g></g><g fill="#ffffff" fill-opacity="1"><g transform="translate(182.147532, 106.848851)"><g><path d="M 6.484375 -0.078125 L 1.828125 -0.015625 L 1.625 -18.3125 L 6.28125 -18.375 Z M 6.484375 -0.078125 "/></g></g></g><g fill="#ffffff" fill-opacity="1"><g transform="translate(193.787248, 107.007511)"><g/></g></g><g fill="#ffffff" fill-opacity="1"><g transform="translate(202.62128, 107.618708)"><g><path d="M 17.78125 5.84375 L 13.875 4.5625 L 9.40625 -8.765625 L 5.890625 1.9375 L 1.734375 0.578125 L 7.453125 -16.796875 L 11.359375 -15.515625 L 15.84375 -2.171875 L 19.375 -12.890625 L 23.5 -11.53125 Z M 17.78125 5.84375 "/></g></g></g><g fill="#ffffff" fill-opacity="1"><g transform="translate(224.336314, 115.787783)"><g/></g></g><g fill="#ffffff" fill-opacity="1"><g transform="translate(232.249621, 119.797155)"><g><path d="M 12.796875 6.578125 L 6.734375 1.34375 L 3.53125 3.046875 L -0.09375 -0.078125 L 17.828125 -8.78125 L 21.453125 -5.65625 L 15.34375 13.234375 L 11.578125 10 Z M 14.078125 3.015625 L 16.515625 -3.796875 L 10.078125 -0.4375 Z M 14.078125 3.015625 "/></g></g></g></svg>